<svg width="40" height="40" viewBox="0 0 40 40" fill="none" xmlns="http://www.w3.org/2000/svg">
<path d="M38 6.94444C38 5.87014 37.3169 5 36.4791 5H4.52087C3.68315 5 3 5.87014 3 6.94444V32.2222C3 33.2965 3.68315 34.1667 4.52087 34.1667H36.4791C37.3218 34.1667 38 33.2965 38 32.2222V6.94444ZM35.2176 31.25H5.79741V7.91667H35.2176V31.25Z" fill="white"/>
<path d="M14.2673 22.4999H12.6048L12.1236 21.2837H9.72606L9.27105 22.4999H7.64355L10.2423 16.3049H11.6948L14.2673 22.4999ZM11.7123 20.0849L10.9423 17.9587L10.1548 20.0849H11.7123Z" fill="white"/>
<path d="M20.0505 20.1637C20.0505 20.9103 19.8055 21.5141 19.3155 21.9749C18.8313 22.4358 18.1868 22.6662 17.3818 22.6662C16.5768 22.6662 15.9351 22.4387 15.4568 21.9837C14.9784 21.5228 14.7393 20.9162 14.7393 20.1637V16.3049H16.2268V20.0412C16.2268 20.4087 16.323 20.7149 16.5155 20.9599C16.708 21.1991 16.9997 21.3187 17.3905 21.3187C17.7872 21.3187 18.0788 21.1991 18.2655 20.9599C18.458 20.7149 18.5543 20.4087 18.5543 20.0412V16.3049H20.0505V20.1637Z" fill="white"/>
<path d="M25.8367 17.5824H24.0867V22.4999H22.5905V17.5824H20.8405V16.3049H25.8367V17.5824Z" fill="white"/>
<path d="M32.8873 19.3762C32.8873 20.3503 32.5694 21.1437 31.9336 21.7562C31.2977 22.3628 30.4898 22.6662 29.5098 22.6662C28.5356 22.6662 27.7306 22.3628 27.0948 21.7562C26.459 21.1437 26.1411 20.3503 26.1411 19.3762C26.1411 18.3962 26.4561 17.6116 27.0861 17.0224C27.7219 16.4333 28.5298 16.1387 29.5098 16.1387C30.4956 16.1387 31.3036 16.4333 31.9336 17.0224C32.5694 17.6116 32.8873 18.3962 32.8873 19.3762ZM31.2861 19.3762C31.2861 18.8278 31.1198 18.3758 30.7873 18.0199C30.4548 17.6641 30.029 17.4862 29.5098 17.4862C28.9906 17.4862 28.5648 17.6641 28.2323 18.0199C27.9056 18.3758 27.7423 18.8278 27.7423 19.3762C27.7423 19.9362 27.9056 20.397 28.2323 20.7587C28.5648 21.1203 28.9906 21.3012 29.5098 21.3012C30.029 21.3012 30.4548 21.1203 30.7873 20.7587C31.1198 20.397 31.2861 19.9362 31.2861 19.3762Z" fill="white"/>
</svg>
