<svg width="40" height="40" viewBox="0 0 40 40" fill="none" xmlns="http://www.w3.org/2000/svg">
<path d="M38 6.94444C38 5.87014 37.3169 5 36.4791 5H4.52087C3.68315 5 3 5.87014 3 6.94444V32.2222C3 33.2965 3.68315 34.1667 4.52087 34.1667H36.4791C37.3218 34.1667 38 33.2965 38 32.2222V6.94444ZM35.2176 31.25H5.79741V7.91667H35.2176V31.25Z" fill="white"/>
<path d="M14.7002 17.4921H11.6683V18.9825H14.4654V20.4219H11.6683V23.2292H9.94312V16.0017H14.7002V17.4921Z" fill="white"/>
<path d="M22.644 23.2292H20.8984V20.2075H18.0809V23.2292H16.3353V16.0017H18.0809V18.7375H20.8984V16.0017H22.644V23.2292Z" fill="white"/>
<path d="M31.3892 19.595C31.3892 20.2075 31.2735 20.752 31.0422 21.2284C30.8108 21.7048 30.4977 22.0859 30.103 22.3717C29.7151 22.6575 29.2863 22.8719 28.8167 23.0148C28.3472 23.1577 27.8537 23.2292 27.3365 23.2292H24.6415V16.0017H27.2549C27.6836 16.0017 28.0885 16.0391 28.4697 16.114C28.8576 16.1821 29.2319 16.3046 29.5926 16.4815C29.9533 16.6584 30.2629 16.8796 30.5215 17.145C30.7869 17.4105 30.9979 17.7541 31.1544 18.1761C31.311 18.5912 31.3892 19.0642 31.3892 19.595ZM29.5722 19.595C29.5722 19.2071 29.5075 18.8737 29.3782 18.5946C29.2489 18.3088 29.0685 18.0876 28.8372 17.9311C28.6126 17.7746 28.3642 17.6623 28.0919 17.5942C27.8265 17.5262 27.5339 17.4921 27.214 17.4921H26.3463V21.7184H27.1732C27.8742 21.7184 28.4492 21.5516 28.8984 21.2182C29.3476 20.8847 29.5722 20.3437 29.5722 19.595Z" fill="white"/>
</svg>
