<svg width="40" height="40" viewBox="0 0 40 40" fill="none" xmlns="http://www.w3.org/2000/svg">
<path d="M38 6.94444C38 5.87014 37.3169 5 36.4791 5H4.52087C3.68315 5 3 5.87014 3 6.94444V32.2222C3 33.2965 3.68315 34.1667 4.52087 34.1667H36.4791C37.3218 34.1667 38 33.2965 38 32.2222V6.94444ZM35.2176 31.25H5.79741V7.91667H35.2176V31.25Z" fill="white"/>
<path d="M18.9974 24.6875H16.5036V20.3709H12.4786V24.6875H9.98486V14.3625H12.4786V18.2709H16.5036V14.3625H18.9974V24.6875Z" fill="white"/>
<path d="M31.4905 19.4959C31.4905 20.3709 31.3252 21.1487 30.9947 21.8292C30.6641 22.5098 30.2169 23.0542 29.653 23.4625C29.0988 23.8709 28.4863 24.1771 27.8155 24.3813C27.1447 24.5855 26.4398 24.6875 25.7009 24.6875H21.8509V14.3625H25.5842C26.1967 14.3625 26.7752 14.416 27.3197 14.523C27.8738 14.6202 28.4085 14.7952 28.9238 15.048C29.4391 15.3007 29.8815 15.6167 30.2509 15.9959C30.6301 16.375 30.9315 16.866 31.1551 17.4688C31.3787 18.0619 31.4905 18.7375 31.4905 19.4959ZM28.8947 19.4959C28.8947 18.9417 28.8023 18.4653 28.6176 18.0667C28.4329 17.6584 28.1752 17.3424 27.8447 17.1188C27.5238 16.8952 27.169 16.7348 26.7801 16.6375C26.4009 16.5403 25.9829 16.4917 25.5259 16.4917H24.2863V22.5292H25.4676C26.469 22.5292 27.2905 22.291 27.9322 21.8146C28.5738 21.3382 28.8947 20.5653 28.8947 19.4959Z" fill="white"/>
</svg>
