<svg xmlns="http://www.w3.org/2000/svg" width="197" height="35" viewBox="0 0 197 35" fill="none">
    <path d="M179.112 34.9467H20.2294C10.3397 34.9467 2.34155 27.1493 2.34155 17.508C2.34155 7.86669 10.3397 0.0693359 20.2294 0.0693359H179.112C189.002 0.0693359 197 7.86669 197 17.508C197 27.0966 189.002 34.9467 179.112 34.9467Z" fill="white"/>
    <path d="M56.0592 13.2918C55.897 13.5026 55.7349 13.7133 55.5728 13.766C55.4107 13.8714 55.1945 13.9241 54.9243 13.9241C54.6541 13.9241 54.3839 13.8714 54.1137 13.766C53.8435 13.6606 53.5192 13.5026 53.195 13.3972C52.8707 13.2391 52.4924 13.1338 52.1141 13.0284C51.6818 12.923 51.2494 12.8704 50.709 12.8704C49.9524 12.8704 49.412 13.0284 48.9797 13.2918C48.6014 13.5553 48.3852 13.9767 48.3852 14.4509C48.3852 14.8197 48.4933 15.0831 48.7635 15.3465C49.0337 15.5573 49.358 15.768 49.7903 15.9788C50.2226 16.1368 50.709 16.3476 51.2494 16.5056C51.7899 16.6637 52.3303 16.8217 52.9247 17.0325C53.5192 17.2432 54.0596 17.4539 54.6 17.7174C55.1405 17.9808 55.6268 18.2969 56.0592 18.7184C56.4915 19.0872 56.8158 19.5613 57.086 20.1409C57.3562 20.6677 57.4643 21.3526 57.4643 22.1429C57.4643 23.0912 57.3021 23.9342 56.9238 24.7771C56.5455 25.5674 56.0592 26.2523 55.3566 26.8318C54.6541 27.4114 53.7894 27.8328 52.7626 28.2016C51.7358 28.5177 50.5469 28.6758 49.1959 28.6758C48.5474 28.6758 47.8448 28.6231 47.1963 28.5177C46.5478 28.4124 45.8993 28.2543 45.2508 28.0436C44.6023 27.8328 44.0619 27.5694 43.5215 27.306C42.981 27.0426 42.5487 26.7265 42.1704 26.3577L43.5215 24.2503C43.6836 23.9869 43.8457 23.8288 44.1159 23.6707C44.3321 23.5127 44.6563 23.46 45.0346 23.46C45.3589 23.46 45.6831 23.5127 45.9533 23.6707C46.2236 23.8288 46.4938 23.9869 46.818 24.1449C47.1423 24.303 47.5206 24.461 47.9529 24.6191C48.3852 24.7771 48.9256 24.8298 49.5201 24.8298C49.9524 24.8298 50.3307 24.7771 50.655 24.6718C50.9792 24.5664 51.1954 24.461 51.4116 24.303C51.6277 24.1449 51.7358 23.9869 51.8439 23.7761C51.952 23.5654 51.952 23.3546 51.952 23.1439C51.952 22.7751 51.8439 22.459 51.5737 22.1956C51.3035 21.9321 50.9792 21.7214 50.5469 21.5634C50.1146 21.4053 49.6282 21.1946 49.0878 21.0892C48.5474 20.9311 48.0069 20.7731 47.4125 20.5623C46.8721 20.3516 46.2776 20.1409 45.7372 19.8774C45.1968 19.614 44.7104 19.2452 44.278 18.8237C43.8457 18.4023 43.5215 17.8754 43.2512 17.2432C42.981 16.611 42.873 15.8734 42.873 15.0304C42.873 14.2402 43.0351 13.4499 43.3593 12.7123C43.6836 11.9747 44.17 11.3425 44.8185 10.763C45.467 10.1834 46.2776 9.76195 47.2503 9.44584C48.2231 9.12973 49.358 8.97168 50.655 8.97168C51.3575 8.97168 52.0601 9.02436 52.7086 9.18242C53.3571 9.28779 54.0056 9.49853 54.546 9.70927C55.1405 9.92001 55.6268 10.1834 56.1132 10.4995C56.5996 10.8156 57.0319 11.1318 57.3562 11.5006L56.0592 13.2918Z" fill="#D8271C"/>
    <path d="M57.3562 9.39355H62.0578C62.4902 9.39355 62.8144 9.49892 63.0846 9.65698C63.3548 9.86772 63.571 10.0785 63.6791 10.3419L65.6246 18.9295C65.7867 19.5617 65.9489 20.1939 66.0569 20.8262C66.165 21.4584 66.2731 22.0379 66.3812 22.6701C66.5433 22.0906 66.7595 21.4584 66.9216 20.8262C67.0837 20.1939 67.2999 19.5617 67.5161 18.9295L69.9479 10.3419C70.056 10.0785 70.2182 9.81503 70.4884 9.65698C70.7586 9.44624 71.0828 9.39355 71.4611 9.39355H74.0551C74.4875 9.39355 74.8117 9.49892 75.0819 9.65698C75.3521 9.86772 75.5683 10.0785 75.6764 10.3419L78.0002 18.9295C78.1623 19.5617 78.3785 20.1939 78.5406 20.8262C78.7027 21.4584 78.8649 22.0379 79.027 22.6701C79.1351 22.0379 79.2431 21.4584 79.4053 20.8262C79.5674 20.1939 79.7295 19.5617 79.8916 18.9295L81.9452 10.3419C82.0533 10.0785 82.2154 9.81503 82.4857 9.65698C82.7559 9.44624 83.0801 9.39355 83.4584 9.39355H87.9439L81.8372 28.5181H77.0815C76.8113 28.5181 76.5951 28.4655 76.433 28.3074C76.2708 28.1493 76.1087 27.9386 76.0006 27.5698L73.1905 18.0339C73.0283 17.6124 72.9203 17.1909 72.8122 16.7694C72.7041 16.3479 72.596 15.9265 72.542 15.505C72.4339 15.9265 72.3798 16.3479 72.2718 16.7694C72.1637 17.1909 72.0556 17.6124 71.8935 18.0339L69.0833 27.5171C68.8671 28.1493 68.4888 28.4655 67.8403 28.4655H63.4629L57.3562 9.39355Z" fill="#D8271C"/>
    <path d="M96.9686 8.81348C98.2656 8.81348 99.4545 9.02422 100.535 9.39301C101.616 9.7618 102.535 10.3413 103.291 11.0789C104.048 11.8165 104.697 12.7648 105.129 13.8185C105.561 14.9249 105.777 16.1367 105.777 17.5065C105.777 17.9279 105.777 18.2967 105.723 18.5602C105.669 18.8236 105.615 19.0343 105.507 19.1924C105.399 19.3504 105.291 19.4558 105.075 19.5085C104.913 19.5612 104.697 19.6139 104.426 19.6139H93.1856C93.3478 21.1944 93.8882 22.3535 94.6988 23.0911C95.5094 23.8286 96.5362 24.1448 97.8332 24.1448C98.5358 24.1448 99.0762 24.0921 99.6166 23.8813C100.103 23.7233 100.535 23.5652 100.914 23.3545C101.292 23.1437 101.67 22.9857 101.994 22.8276C102.319 22.6696 102.643 22.5642 103.021 22.5642C103.508 22.5642 103.832 22.7223 104.102 23.0384L105.831 25.0931C105.237 25.778 104.588 26.3048 103.886 26.7263C103.183 27.1478 102.481 27.4639 101.724 27.7273C100.968 27.9907 100.265 28.1488 99.5085 28.2015C98.7519 28.3069 98.0494 28.3595 97.4009 28.3595C96.0499 28.3595 94.7528 28.1488 93.5639 27.7273C92.375 27.3058 91.2942 26.6209 90.4295 25.778C89.5108 24.935 88.8082 23.8286 88.2678 22.5642C87.7274 21.2998 87.5112 19.8246 87.5112 18.086C87.5112 16.8216 87.7274 15.6098 88.1597 14.4507C88.5921 13.2917 89.2406 12.2907 90.1052 11.4477C90.9159 10.6048 91.9427 9.91986 93.1316 9.39301C94.1584 9.0769 95.5094 8.81348 96.9686 8.81348ZM97.0766 12.7648C95.9418 12.7648 95.0771 13.0809 94.4286 13.7132C93.7801 14.3454 93.4018 15.241 93.1856 16.4001H100.481C100.481 15.9259 100.427 15.5044 100.319 15.083C100.211 14.6615 99.9949 14.2927 99.7247 13.9239C99.4545 13.6078 99.0762 13.2917 98.6439 13.0809C98.2656 12.8702 97.7252 12.7648 97.0766 12.7648Z" fill="#D8271C"/>
    <path d="M117.559 8.81348C118.856 8.81348 120.045 9.02422 121.125 9.39301C122.206 9.7618 123.125 10.3413 123.882 11.0789C124.638 11.8165 125.233 12.7648 125.719 13.8185C126.151 14.9249 126.368 16.1367 126.368 17.5065C126.368 17.9279 126.368 18.2967 126.313 18.5602C126.259 18.8236 126.205 19.0343 126.097 19.1924C125.989 19.3504 125.881 19.4558 125.665 19.5085C125.503 19.5612 125.287 19.6139 125.016 19.6139H113.722C113.884 21.1944 114.424 22.3535 115.235 23.0911C116.046 23.8286 117.072 24.1448 118.369 24.1448C119.072 24.1448 119.612 24.0921 120.153 23.8813C120.639 23.7233 121.071 23.5652 121.45 23.3545C121.828 23.1437 122.206 22.9857 122.531 22.8276C122.855 22.6696 123.179 22.5642 123.557 22.5642C124.044 22.5642 124.368 22.7223 124.638 23.0384L126.313 25.0931C125.719 25.778 125.071 26.3048 124.368 26.7263C123.665 27.1478 122.963 27.4639 122.206 27.7273C121.45 27.9907 120.747 28.1488 119.991 28.2015C119.234 28.3069 118.531 28.3595 117.883 28.3595C116.532 28.3595 115.235 28.1488 113.992 27.7273C112.803 27.3058 111.722 26.6209 110.858 25.778C109.939 24.935 109.236 23.8286 108.696 22.5642C108.155 21.2998 107.885 19.8246 107.885 18.086C107.885 16.8216 108.101 15.6098 108.534 14.4507C108.966 13.2917 109.615 12.2907 110.479 11.4477C111.344 10.6048 112.317 9.91986 113.506 9.39301C114.749 9.0769 116.046 8.81348 117.559 8.81348ZM117.667 12.7648C116.532 12.7648 115.667 13.0809 115.019 13.7132C114.37 14.3454 113.992 15.241 113.776 16.4001H121.071C121.071 15.9259 121.017 15.5044 120.909 15.083C120.801 14.6615 120.585 14.2927 120.315 13.9239C120.045 13.6078 119.666 13.2917 119.234 13.0809C118.856 12.8702 118.315 12.7648 117.667 12.7648Z" fill="#D8271C"/>
    <path d="M146.796 24.0402C146.633 23.6714 146.363 23.3026 146.093 23.0392C145.769 22.7757 145.444 22.5123 145.012 22.3543C144.202 22.0382 143.175 22.0382 142.364 22.3543C141.932 22.5123 141.608 22.7757 141.283 23.0392C140.959 23.3026 140.743 23.6714 140.581 24.0402C140.419 24.409 140.311 24.8305 140.311 25.3046C140.311 25.7788 140.419 26.2003 140.581 26.5691C140.743 26.9905 141.013 27.3066 141.283 27.5701C141.608 27.8862 141.932 28.0969 142.364 28.255C142.796 28.413 143.229 28.5184 143.715 28.5184C144.202 28.5184 144.634 28.413 145.012 28.255C145.39 28.0969 145.769 27.8862 146.093 27.5701C146.417 27.3066 146.633 26.9378 146.796 26.5164C146.958 26.0949 147.066 25.6734 147.066 25.2519C147.066 24.8305 146.958 24.409 146.796 24.0402Z" fill="#D8271C"/>
    <path d="M175.005 28.5181H169.655L162.035 9.39355H166.899C167.331 9.39355 167.655 9.49892 167.926 9.65698C168.196 9.86772 168.412 10.0785 168.52 10.3419L171.222 18.9295C171.438 19.6144 171.655 20.2993 171.871 20.9842C172.033 21.6691 172.195 22.3013 172.357 22.9862C172.519 22.3013 172.681 21.6691 172.844 20.9842C173.006 20.2993 173.276 19.6144 173.492 18.9295L176.302 10.3419C176.41 10.0785 176.572 9.81503 176.897 9.65698C177.167 9.44624 177.491 9.39355 177.869 9.39355H182.517L175.005 28.5181Z" fill="#D8271C"/>
    <path d="M137.608 23.9875C137.5 23.7767 137.338 23.6714 137.23 23.566C137.068 23.4606 136.851 23.4079 136.635 23.4079C136.473 23.4079 136.311 23.4606 136.203 23.5133C136.095 23.566 135.987 23.6187 135.879 23.6714C135.825 23.7241 135.717 23.7241 135.608 23.7767C135.5 23.8294 135.392 23.8294 135.23 23.8294C134.96 23.8294 134.798 23.7767 134.69 23.566C134.528 23.3553 134.474 23.1445 134.474 22.7757V14.5569H138.851V10.2894H134.474V5.49512H129.718V5.5478C128.961 5.70586 128.421 6.39076 128.421 7.12835V23.0918C128.421 23.8821 128.529 24.6197 128.799 25.3046C129.069 25.9895 129.394 26.569 129.88 27.0432C130.366 27.5174 130.961 27.8862 131.663 28.1496C132.366 28.413 133.123 28.5184 134.041 28.5184C134.96 28.5184 135.933 28.413 136.797 28.1496C137.716 27.8862 138.527 27.4647 139.229 26.9905L139.5 26.7798L137.608 23.9875Z" fill="#D8271C"/>
    <path d="M160.198 23.9875C160.09 23.7767 159.928 23.6714 159.82 23.566C159.657 23.4606 159.441 23.4079 159.225 23.4079C159.063 23.4079 158.901 23.4606 158.793 23.5133C158.685 23.566 158.577 23.6187 158.468 23.6714C158.414 23.7241 158.306 23.7241 158.198 23.7767C158.09 23.8294 157.982 23.8294 157.82 23.8294C157.55 23.8294 157.388 23.7767 157.28 23.566C157.117 23.3553 157.063 23.1445 157.063 22.7757V14.5569H161.441V10.2894H157.063V5.49512H152.308V5.5478C151.551 5.70586 151.011 6.39076 151.011 7.12835V23.0918C151.011 23.8821 151.119 24.6197 151.389 25.3046C151.659 25.9895 151.983 26.569 152.47 27.0432C152.956 27.5174 153.551 27.8862 154.253 28.1496C154.956 28.413 155.712 28.5184 156.631 28.5184C157.55 28.5184 158.523 28.413 159.387 28.1496C160.306 27.8862 161.117 27.4647 161.819 26.9905L162.089 26.7798L160.198 23.9875Z" fill="#D8271C"/>
    <path d="M18.2837 0.333008C8.39402 0.333008 0.341797 8.07767 0.341797 17.6663C0.341797 27.2549 8.39402 34.9996 18.2837 34.9996C28.1733 34.9996 36.2255 27.2549 36.2255 17.6663C36.2796 8.07767 28.2274 0.333008 18.2837 0.333008ZM24.7146 17.0341L15.0412 22.1972C14.2305 22.6187 13.582 22.1445 13.582 21.1435L13.4739 11.6602C13.4739 10.6592 14.1225 10.1324 14.9331 10.5539L24.6606 15.5062C25.4712 15.9277 25.5253 16.6126 24.7146 17.0341Z" fill="#15394C"/>
    <path opacity="0.24" d="M19.9048 0.0166016C9.90705 0.0166016 1.80078 7.86664 1.80078 17.508C1.80078 27.1493 9.90705 34.9993 19.9048 34.9993C29.9025 34.9993 37.2522 27.1493 37.2522 17.508C37.3062 7.86664 29.9025 0.0166016 19.9048 0.0166016ZM26.3898 16.8757L16.6623 22.0388C15.8517 22.4603 15.2031 21.9862 15.1491 20.9851L15.041 11.4492C15.041 10.4482 15.6895 9.92134 16.5002 10.3428L26.3358 15.3479C27.1464 15.7694 27.2004 16.4543 26.3898 16.8757Z" fill="#15394C"/>
    <path d="M36.0094 13.4519C35.3609 10.5016 31.9563 4.75892 29.7946 3.86328C27.741 3.02033 26.6602 1.59784 25.8496 1.43978C25.093 1.28173 21.5262 -0.193447 20.2833 0.0699768C19.0403 0.333401 17.2569 -0.0880767 16.2301 0.0172929C15.2033 0.175347 9.74511 1.33441 6.66473 4.07402C3.74647 6.65558 2.8818 8.07807 2.8818 8.07807C2.8818 8.07807 -2.57642 18.615 1.53076 19.8795C2.61159 20.1956 2.44947 20.8278 2.50351 21.9342C2.50351 23.5674 2.01713 23.7781 3.2601 24.7265C4.50306 25.6748 5.80006 23.8835 6.8809 24.9372C7.90769 25.9909 5.8541 28.309 8.77236 29.8896C11.6906 31.4174 11.2583 27.4134 13.3119 28.0983C15.4195 28.7832 13.5821 31.6282 15.9599 31.7862C18.3378 31.997 17.4731 28.8886 18.8782 29.0993C20.2833 29.31 19.4726 31.5228 22.3909 30.9959C25.3091 30.4691 23.3636 28.0456 24.9309 27.5714C26.5521 27.0973 27.0925 30.153 30.227 27.2026C33.3614 24.2523 30.3891 24.305 31.0916 23.1459C31.7401 21.9868 32.4427 23.9889 33.3614 21.3019C34.3341 18.615 33.4695 19.616 33.3614 18.3516C33.2533 17.1398 36.6579 16.4023 36.0094 13.4519Z" fill="white"/>
    <path d="M30.3889 22.3552H28.1732C27.957 22.3552 27.7949 22.1972 27.7949 21.9864V21.4069C27.7949 21.1961 27.957 21.0381 28.1732 21.0381H30.3889C30.6051 21.0381 30.7672 21.1961 30.7672 21.4069V21.9864C30.7132 22.1445 30.5511 22.3552 30.3889 22.3552Z" fill="#D8271C"/>
    <path d="M30.9296 15.9284C30.8756 15.9284 30.8215 15.9284 30.7134 15.8757L30.2271 15.5596C30.119 15.5069 30.0649 15.4015 30.0649 15.3488C30.0649 15.2435 30.0649 15.1381 30.119 15.0854L31.2539 13.1887C31.3619 13.0307 31.5781 12.9253 31.7402 13.0307L32.2266 13.3468C32.3347 13.3995 32.3887 13.5049 32.3887 13.5575C32.3887 13.6629 32.3887 13.7683 32.3347 13.821L31.1998 15.7176C31.1998 15.8757 31.0377 15.9284 30.9296 15.9284Z" fill="#D8271C"/>
    <path d="M27.7952 11.9771C27.7412 11.9771 27.6872 11.9771 27.6331 11.9244L27.1467 11.6083C26.9846 11.503 26.9306 11.2922 27.0387 11.0815L28.1735 9.18484C28.2816 9.02679 28.4978 8.92142 28.6599 9.02679L29.1463 9.3429C29.2544 9.39558 29.3084 9.50095 29.3084 9.55364C29.3084 9.65901 29.3084 9.76438 29.2544 9.81706L28.1195 11.7664C28.0114 11.8718 27.9033 11.9771 27.7952 11.9771Z" fill="#F6BF48"/>
    <path d="M24.8229 7.44581C24.7688 7.44581 24.7148 7.44581 24.6607 7.39313C24.5527 7.34044 24.4986 7.28776 24.4446 7.18239L23.688 5.075C23.634 4.96963 23.634 4.86426 23.688 4.81157C23.742 4.7062 23.7961 4.65352 23.9042 4.60084L24.4446 4.3901C24.6607 4.33741 24.8769 4.3901 24.931 4.60084L25.6875 6.70823C25.7416 6.91897 25.6875 7.1297 25.4714 7.18239L24.931 7.39313C24.931 7.44581 24.8769 7.44581 24.8229 7.44581Z" fill="#D8271C"/>
    <path d="M21.7424 8.23552C21.6883 8.28821 21.6883 8.28821 21.6343 8.34089C21.5262 8.39358 21.4722 8.39358 21.3641 8.39358L19.1484 7.81404C19.0403 7.81404 18.9863 7.70867 18.9322 7.65599C18.8782 7.55062 18.8782 7.44525 18.8782 7.39257L19.0403 6.86572C19.0943 6.65498 19.3105 6.54961 19.4726 6.60229L21.6883 7.18183C21.7964 7.18183 21.8505 7.28719 21.9045 7.33988C21.9586 7.44525 21.9586 7.55062 21.9586 7.6033L21.7964 8.13015C21.7964 8.18284 21.7964 8.23552 21.7424 8.23552Z" fill="#20BEC6"/>
    <path d="M16.3384 4.44265C16.1763 4.44265 16.0142 4.33728 15.9601 4.12654L15.8521 3.54701C15.8521 3.44164 15.852 3.33627 15.9061 3.28358C15.9601 3.17821 16.0682 3.12553 16.1223 3.12553L18.2839 2.65137C18.392 2.65137 18.5001 2.65137 18.5541 2.70405C18.6622 2.75674 18.7163 2.86211 18.7163 2.91479L18.8243 3.49432C18.8784 3.70506 18.7163 3.9158 18.5541 3.96849L16.3925 4.44265H16.3384Z" fill="#F6BF48"/>
    <path d="M22.7691 25.7799C22.7151 25.7799 22.661 25.7799 22.607 25.7272L22.1206 25.4111C21.9585 25.3057 21.9044 25.095 22.0125 24.8842L23.1474 22.9876C23.2555 22.8295 23.4717 22.7242 23.6338 22.8295L24.1202 23.1456C24.2283 23.1983 24.2823 23.3037 24.2823 23.3564C24.2823 23.4617 24.2823 23.5671 24.2283 23.6198L23.0934 25.5165C22.9853 25.7272 22.8772 25.7799 22.7691 25.7799Z" fill="#20BEC6"/>
    <path d="M6.66481 12.1347L4.7193 11.1864C4.55718 11.081 4.4491 10.8702 4.55718 10.7122L4.82739 10.1853C4.93547 9.97461 5.15164 9.92192 5.31376 10.0273L7.25927 10.9756C7.4214 11.081 7.52948 11.2917 7.4214 11.4498L7.15119 11.9766C7.0431 12.1347 6.82694 12.2401 6.66481 12.1347Z" fill="#F6BF48"/>
    <path d="M6.88103 21.5125C6.82699 21.4598 6.77294 21.4071 6.77294 21.3544L6.50274 20.8276C6.39465 20.6695 6.50274 20.4061 6.66486 20.3007L8.6644 19.247C8.77249 19.1943 8.88057 19.1943 8.93461 19.1943C9.0427 19.247 9.09674 19.2997 9.15078 19.3524L9.42099 19.8792C9.47503 19.9846 9.47503 20.09 9.42099 20.1427C9.36695 20.248 9.31291 20.3007 9.25886 20.3534L7.25932 21.4071C7.15124 21.4598 7.04315 21.4598 6.98911 21.4598C6.93507 21.5125 6.88103 21.5125 6.88103 21.5125Z" fill="#20BEC6"/>
    <path d="M9.42106 8.4996C9.36702 8.4996 9.31297 8.4996 9.20489 8.44691L8.71851 8.1308C8.55639 8.02543 8.50235 7.8147 8.61043 7.60396L9.74531 5.7073C9.85339 5.54925 10.0696 5.44388 10.2317 5.54925L10.7181 5.86536C10.8261 5.91804 10.8802 6.02341 10.8802 6.0761C10.8802 6.18147 10.8802 6.28684 10.8261 6.33952L9.69127 8.23617C9.63722 8.34154 9.58318 8.39423 9.4751 8.39423C9.4751 8.4996 9.42106 8.4996 9.42106 8.4996Z" fill="#D8271C"/>
    <path d="M8.0159 17.1402C7.90781 17.2456 7.69164 17.2456 7.58356 17.0875L5.85422 15.665C5.6921 15.507 5.6921 15.2962 5.80018 15.1382L6.17847 14.7167C6.23252 14.664 6.3406 14.6113 6.44868 14.6113C6.55677 14.6113 6.66485 14.6113 6.71889 14.7167L8.44823 16.1392C8.50227 16.1919 8.55631 16.2972 8.61036 16.4026C8.61036 16.508 8.61036 16.6134 8.55631 16.666L8.17802 17.0875C8.06994 17.1402 8.06994 17.1402 8.0159 17.1402Z" fill="#D8271C"/>
    <path d="M10.0693 26.6758C9.90716 26.6758 9.74504 26.5705 9.69099 26.4124L9.09654 24.2523C9.04249 24.0416 9.15058 23.8309 9.36674 23.7782L9.90716 23.6201C10.0152 23.6201 10.1233 23.6201 10.1774 23.6728C10.2855 23.7255 10.3395 23.7782 10.3395 23.8835L10.934 26.0436C10.934 26.149 10.934 26.2544 10.8799 26.307C10.8259 26.4124 10.7718 26.4651 10.6637 26.4651L10.1233 26.6231C10.1774 26.6758 10.1233 26.6758 10.0693 26.6758Z" fill="#D8271C"/>
    <path d="M17.3651 27.7823C17.203 27.7823 17.0408 27.6769 16.9868 27.5189L16.4464 25.3588C16.3923 25.148 16.5004 24.9373 16.7166 24.8846L17.257 24.7266C17.3651 24.7266 17.4732 24.7266 17.5272 24.7792C17.6353 24.8319 17.6893 24.9373 17.6893 24.99L18.2838 27.1501C18.2838 27.2554 18.2838 27.3608 18.2298 27.4135C18.1757 27.5189 18.1217 27.5715 18.0136 27.5715L17.4732 27.7296C17.4191 27.7823 17.4191 27.7823 17.3651 27.7823Z" fill="#F6BF48"/>
    <path d="M26.5521 15.1904L14.0685 8.86822C13.0417 8.34137 12.177 8.97359 12.177 10.2907L12.2851 22.4082C12.2851 23.7253 13.1498 24.3049 14.1765 23.778L26.5521 17.1924C27.633 16.6129 27.5789 15.7172 26.5521 15.1904Z" fill="#20BEC6"/>
    <path d="M26.5521 15.1904L14.0685 8.86822C13.0417 8.34137 12.177 8.97359 12.177 10.2907V11.9239L24.6607 18.1407L26.4981 17.1397C27.633 16.6129 27.5789 15.7172 26.5521 15.1904Z" fill="#15394C"/>
</svg>